<!-- Generator: Adobe Illustrator 22.0.1, SVG Export Plug-In  -->
<svg version="1.1"
	 xmlns="http://www.w3.org/2000/svg" xmlns:xlink="http://www.w3.org/1999/xlink" xmlns:a="http://ns.adobe.com/AdobeSVGViewerExtensions/3.0/"
	 x="0px" y="0px" width="2048.839px" height="283.044px" viewBox="0 0 2048.839 283.044"
	 style="enable-background:new 0 0 2048.839 283.044;" xml:space="preserve">
<style type="text/css">
	.st0{fill:#FFFFFF;}
</style>
<defs>
</defs>
<path class="st0" d="M1242.874,282.729c0.66,0.001,66.236,0.136,91.111,0.136c12.921,0,25.458-2.531,37.262-7.524
	c11.4-4.822,21.636-11.723,30.426-20.513c8.79-8.79,15.691-19.026,20.513-30.426c4.993-11.804,7.524-24.341,7.524-37.262V96.04
	c0-12.921-2.531-25.458-7.524-37.262c-4.822-11.399-11.723-21.636-20.513-30.426c-8.79-8.79-19.026-15.691-30.426-20.513
	c-11.805-4.993-24.341-7.524-37.262-7.524c-24.865,0-90.432-0.135-91.091-0.136c-0.003,0-0.006,0-0.01,0
	c-1.225,0-2.399,0.486-3.266,1.351c-0.87,0.867-1.358,2.045-1.358,3.273v273.303
	C1238.259,280.655,1240.323,282.724,1242.874,282.729z M1247.507,9.436c15.467,0.031,65.477,0.127,86.477,0.127
	c11.676,0,23.001,2.286,33.659,6.794c10.297,4.355,19.546,10.591,27.489,18.535s14.179,17.192,18.535,27.489
	c4.508,10.658,6.794,21.983,6.794,33.659v91.101c0,11.676-2.286,23.001-6.794,33.659c-4.355,10.297-10.591,19.545-18.535,27.489
	s-17.192,14.179-27.489,18.535c-10.658,4.508-21.983,6.794-33.659,6.794h0c-21.001,0-71.036-0.096-86.477-0.127V9.436z"/>
<path class="st0" d="M1862.013,282.798c2.554,0,4.624-2.07,4.624-4.624V24.459l82.341,164.682c0.783,1.566,2.385,2.556,4.136,2.556
	c1.751,0,3.353-0.99,4.136-2.556l82.341-164.682v253.715c0,2.554,2.07,4.624,4.624,4.624c2.554,0,4.624-2.07,4.624-4.624V4.871
	c0-2.145-1.474-4.008-3.562-4.5c-2.085-0.492-4.239,0.514-5.198,2.432l-86.965,173.93l-86.965-173.93
	c-0.959-1.918-3.112-2.925-5.198-2.432c-2.087,0.492-3.562,2.356-3.562,4.5v273.303
	C1857.389,280.727,1859.459,282.798,1862.013,282.798z"/>
<path class="st0" d="M1575.861,254.76c8.79,8.79,19.027,15.691,30.426,20.513c11.804,4.993,24.341,7.525,37.262,7.525
	s25.458-2.532,37.262-7.525c11.399-4.822,21.636-11.723,30.426-20.513c8.79-8.79,15.691-19.026,20.513-30.426
	c4.993-11.804,7.524-24.341,7.524-37.262V95.971c0-12.921-2.531-25.458-7.524-37.262c-4.822-11.4-11.723-21.636-20.513-30.426
	c-8.79-8.79-19.027-15.691-30.426-20.513c-11.804-4.993-24.341-7.525-37.262-7.525c-12.921,0-25.457,2.531-37.262,7.525
	c-11.399,4.822-21.636,11.723-30.426,20.513c-8.79,8.79-15.691,19.026-20.513,30.426c-4.993,11.804-7.524,24.341-7.524,37.262
	v91.101c0,12.921,2.531,25.458,7.524,37.262C1560.17,235.734,1567.071,245.971,1575.861,254.76z M1557.072,95.971
	c0-11.676,2.286-23.001,6.794-33.659c4.355-10.297,10.591-19.546,18.535-27.489s17.192-14.179,27.489-18.534
	c10.658-4.508,21.983-6.794,33.659-6.794s23.001,2.286,33.659,6.794c10.297,4.355,19.546,10.591,27.489,18.534
	s14.179,17.192,18.535,27.489c4.508,10.658,6.794,21.983,6.794,33.659v91.101c0,11.676-2.286,23.001-6.794,33.659
	c-4.355,10.297-10.591,19.546-18.535,27.489s-17.192,14.179-27.489,18.534c-10.658,4.508-21.983,6.794-33.659,6.794h0
	c-11.676,0-23.001-2.286-33.659-6.794c-10.297-4.355-19.546-10.591-27.489-18.534s-14.179-17.192-18.535-27.489
	c-4.508-10.658-6.794-21.983-6.794-33.659V95.971z"/>
<path class="st0" d="M623.753,282.797h182.202c2.554,0,4.624-2.07,4.624-4.624c0-2.554-2.07-4.624-4.624-4.624H628.378v-81.853
	h86.477c2.554,0,4.624-2.07,4.624-4.624c0-2.554-2.07-4.624-4.624-4.624h-86.477V9.495h177.578c2.554,0,4.624-2.07,4.624-4.624
	c0-2.554-2.07-4.624-4.624-4.624H623.753c-2.554,0-4.624,2.07-4.624,4.624v273.303C619.129,280.727,621.2,282.797,623.753,282.797z"
	/>
<path class="st0" d="M933.318,282.797h182.202c2.554,0,4.624-2.07,4.624-4.624c0-2.554-2.07-4.624-4.624-4.624H937.942v-81.853
	h86.477c2.554,0,4.624-2.07,4.624-4.624c0-2.554-2.07-4.624-4.624-4.624h-86.477V9.495h177.578c2.554,0,4.624-2.07,4.624-4.624
	c0-2.554-2.07-4.624-4.624-4.624H933.318c-2.554,0-4.624,2.07-4.624,4.624v273.303C928.694,280.727,930.764,282.797,933.318,282.797
	z"/>
<path class="st0" d="M4.624,282.797c2.554,0,4.624-2.07,4.624-4.624v-86.477h86.477c2.554,0,4.624-2.07,4.624-4.624
	c0-2.554-2.07-4.624-4.624-4.624H9.248V9.495h177.578c2.554,0,4.624-2.07,4.624-4.624c0-2.554-2.07-4.624-4.624-4.624H4.624
	C2.07,0.247,0,2.317,0,4.871v273.303C0,280.727,2.07,282.797,4.624,282.797z"/>
<path class="st0" d="M314.189,283.044c2.554,0,4.624-2.07,4.624-4.624V9.893c0.005,0,0.01,0,0.015,0c2.224,0,5.274-0.025,9.08-0.074
	c7.586-0.098,16.911-0.276,23.719-0.405c4.888-0.093,8.751-0.168,9.611-0.166c19.572,0.017,39.914,0.937,54.662,11.737
	c9.538,6.984,17.174,16.222,22.698,27.457c5.141,10.457,8.345,22.367,9.524,35.4c1.104,12.202,0.335,25.271-2.223,37.796
	c-2.508,12.281-6.743,24.108-12.247,34.203c-7.591,13.923-18.376,23.769-29.594,27.021c-1.522,0.419-2.734,1.592-3.196,3.117
	c-0.494,1.632-0.05,3.404,1.156,4.61l91.101,91.101c1.806,1.806,4.734,1.806,6.539,0c1.806-1.806,1.806-4.734,0-6.54l-86.081-86.081
	c4.858-2.351,9.514-5.646,13.905-9.85c5.413-5.181,10.354-11.734,14.289-18.951c5.938-10.892,10.499-23.609,13.188-36.779
	c2.775-13.587,3.573-27.206,2.373-40.48c-1.281-14.166-4.792-27.169-10.435-38.647c-6.188-12.587-14.779-22.963-25.533-30.838
	C404.369,1.077,382.346,0.018,361.247,0c-0.006,0-0.011,0-0.017,0c-0.981,0-4.676,0.07-9.778,0.168
	c-10.763,0.205-32.842,0.625-36.295,0.433c-0.312-0.066-0.636-0.101-0.968-0.101c-2.554,0-4.624,2.07-4.624,4.624V278.42
	C309.565,280.974,311.635,283.044,314.189,283.044z M318.729,4.242c-0.054-0.282-0.135-0.555-0.238-0.817
	C318.594,3.682,318.674,3.955,318.729,4.242z"/>
</svg>