<!-- Generator: Adobe Illustrator 22.0.1, SVG Export Plug-In  -->
<svg version="1.1"
	 xmlns="http://www.w3.org/2000/svg" xmlns:xlink="http://www.w3.org/1999/xlink" xmlns:a="http://ns.adobe.com/AdobeSVGViewerExtensions/3.0/"
	 x="0px" y="0px" width="1104.976px" height="282.552px" viewBox="0 0 1104.976 282.552"
	 style="enable-background:new 0 0 1104.976 282.552;" xml:space="preserve">
<style type="text/css">
	.st0{fill:#FFFFFF;}
</style>
<defs>
</defs>
<path class="st0" d="M612.179,282.314c2.421,0.807,5.042-0.502,5.849-2.925l86.714-260.143l54.318,162.955h-54.318
	c-2.554,0-4.624,2.07-4.624,4.624c0,2.554,2.07,4.624,4.624,4.624h57.401l29.313,87.939c0.646,1.938,2.45,3.163,4.386,3.163
	c0.485,0,0.978-0.077,1.463-0.239c2.423-0.808,3.732-3.427,2.925-5.849L709.129,3.162C708.5,1.273,706.732,0,704.742,0
	s-3.757,1.273-4.387,3.162l-91.101,273.303C608.447,278.887,609.756,281.506,612.179,282.314z"/>
<path class="st0" d="M941.563,254.515c8.79,8.79,19.027,15.691,30.426,20.512c11.804,4.993,24.341,7.525,37.262,7.525h91.101
	c2.554,0,4.624-2.07,4.624-4.624c0-2.554-2.07-4.624-4.624-4.624h-91.101c-11.676,0-23.001-2.286-33.659-6.794
	c-10.297-4.355-19.546-10.591-27.489-18.534s-14.179-17.192-18.535-27.489c-4.508-10.658-6.794-21.983-6.794-33.659V4.625
	c0-2.554-2.07-4.624-4.624-4.624c-2.554,0-4.624,2.07-4.624,4.624v182.202c0,12.921,2.531,25.458,7.525,37.262
	C925.872,235.488,932.773,245.725,941.563,254.515z"/>
<path class="st0" d="M186.826,273.303H13.264L190.673,7.19c0.946-1.419,1.034-3.243,0.23-4.747s-2.372-2.442-4.077-2.442H4.624
	C2.07,0.001,0,2.071,0,4.625s2.07,4.624,4.624,4.624h173.562L0.777,275.363c-0.946,1.419-1.034,3.243-0.23,4.747
	c0.805,1.504,2.372,2.442,4.077,2.442h182.202c2.554,0,4.624-2.07,4.624-4.624C191.45,275.374,189.38,273.303,186.826,273.303z"/>
<path class="st0" d="M309.133,282.552h182.202c2.554,0,4.624-2.07,4.624-4.624c0-2.554-2.07-4.624-4.624-4.624H313.757v-81.853
	h86.477c2.554,0,4.624-2.07,4.624-4.624c0-2.554-2.07-4.624-4.624-4.624h-86.477V9.249h177.578c2.554,0,4.624-2.07,4.624-4.624
	c0-2.554-2.07-4.624-4.624-4.624H309.133c-2.554,0-4.624,2.07-4.624,4.624v273.303C304.509,280.481,306.579,282.552,309.133,282.552
	z"/>
</svg>