<!-- Generator: Adobe Illustrator 22.0.1, SVG Export Plug-In  -->
<svg version="1.1"
	 xmlns="http://www.w3.org/2000/svg" xmlns:xlink="http://www.w3.org/1999/xlink" xmlns:a="http://ns.adobe.com/AdobeSVGViewerExtensions/3.0/"
	 x="0px" y="0px" width="1326.429px" height="474.777px" viewBox="0 0 1326.429 474.777"
	 style="enable-background:new 0 0 1326.429 474.777;" xml:space="preserve">
<style type="text/css">
	.st0{fill:#F9F3F3;}
</style>
<defs>
</defs>
<g>
	<g>
		<path class="st0" d="M603.637,229.249c19.226,0,37.3,7.487,50.895,21.081c13.594,13.595,21.081,31.669,21.081,50.895
			c0,5.449,4.417,9.866,9.866,9.866s9.866-4.417,9.866-9.866c0-12.376-2.426-24.387-7.211-35.7
			c-4.619-10.922-11.231-20.728-19.65-29.148c-8.419-8.419-18.226-15.03-29.148-19.65c-11.313-4.785-23.324-7.211-35.7-7.211
			c-12.376,0-24.388,2.426-35.7,7.211c-10.922,4.62-20.728,11.231-29.147,19.65c-8.419,8.419-15.03,18.226-19.65,29.148
			c-4.785,11.313-7.211,23.324-7.211,35.7c0,3.737,2.111,7.153,5.454,8.825l157.988,78.994
			c-1.385,16.973-8.662,32.742-20.838,44.919c-13.595,13.595-31.67,21.081-50.895,21.081s-37.3-7.487-50.895-21.081
			c-13.594-13.594-21.081-31.669-21.081-50.895c0-5.449-4.417-9.866-9.866-9.866s-9.866,4.417-9.866,9.866
			c0,12.376,2.426,24.387,7.211,35.7c4.619,10.922,11.231,20.728,19.65,29.148c8.419,8.419,18.226,15.03,29.148,19.65
			c11.312,4.785,23.324,7.211,35.7,7.211c12.376,0,24.387-2.426,35.7-7.211c10.922-4.62,20.729-11.231,29.148-19.65
			s15.03-18.226,19.65-29.148c4.785-11.313,7.211-23.324,7.211-35.7c0-3.737-2.111-7.153-5.454-8.825l-157.988-78.994
			c1.385-16.973,8.662-32.742,20.838-44.919C566.336,236.736,584.411,229.249,603.637,229.249z"/>
		<g>
			<path class="st0" d="M852.331,424.367c-0.008-0.025-0.017-0.05-0.025-0.075l-29.074-87.223c-0.715-2.146-2.724-3.594-4.986-3.594
				s-4.271,1.448-4.986,3.594l-43.596,130.789c-0.918,2.754,0.57,5.73,3.324,6.648c2.754,0.918,5.73-0.57,6.648-3.324l38.61-115.831
				l21.773,65.318h-21.773c-2.903,0-5.256,2.353-5.256,5.256c0,2.903,2.353,5.256,5.256,5.256h25.276l13.334,40.003
				c0.734,2.202,2.785,3.595,4.985,3.595c0.551,0,1.111-0.087,1.663-0.271c2.754-0.918,4.242-3.894,3.324-6.648L852.331,424.367z"/>
			<path class="st0" d="M1311.661,424.367c-0.008-0.025-0.017-0.05-0.025-0.075l-29.074-87.223
				c-0.715-2.146-2.724-3.594-4.986-3.594c-2.262,0-4.271,1.448-4.986,3.594l-43.596,130.789c-0.918,2.754,0.57,5.73,3.324,6.648
				c2.754,0.918,5.73-0.57,6.648-3.324l38.61-115.831l21.773,65.318h-21.773c-2.902,0-5.255,2.353-5.255,5.256
				c0,2.903,2.353,5.256,5.255,5.256h25.276l13.334,40.003c0.734,2.202,2.785,3.595,4.985,3.595c0.551,0,1.111-0.087,1.663-0.271
				c2.754-0.918,4.242-3.894,3.324-6.648L1311.661,424.367z"/>
			<path class="st0" d="M1190.875,333.476h-87.193c-2.903,0-5.255,2.353-5.255,5.256c0,2.903,2.353,5.256,5.255,5.256h38.341V469.52
				c0,2.903,2.353,5.256,5.256,5.256c2.902,0,5.255-2.353,5.255-5.256V343.987h38.341c2.903,0,5.255-2.353,5.255-5.256
				C1196.13,335.829,1193.777,333.476,1190.875,333.476z"/>
			<path class="st0" d="M1025.991,333.476c-2.903,0-5.256,2.353-5.256,5.256v113.431l-77.564-116.346
				c-1.285-1.927-3.679-2.786-5.896-2.115c-2.217,0.671-3.733,2.714-3.733,5.03V469.52c0,2.903,2.353,5.256,5.256,5.256
				s5.256-2.353,5.256-5.256V356.089l77.564,116.346c0.993,1.489,2.649,2.341,4.373,2.341c0.507,0,1.019-0.074,1.523-0.226
				c2.216-0.671,3.733-2.714,3.733-5.03V338.731C1031.247,335.829,1028.894,333.476,1025.991,333.476z"/>
		</g>
		<g>
			<path class="st0" d="M973.722,255.212c-0.004-0.012-0.008-0.023-0.012-0.035l-13.543-40.629c-0.333-1-1.269-1.674-2.322-1.674
				s-1.989,0.674-2.322,1.674l-20.307,60.922c-0.428,1.283,0.266,2.669,1.548,3.097c1.283,0.427,2.669-0.266,3.097-1.548
				l17.985-53.955l10.142,30.425h-10.142c-1.352,0-2.448,1.096-2.448,2.448s1.096,2.448,2.448,2.448h11.774l6.211,18.633
				c0.342,1.026,1.297,1.675,2.322,1.675c0.257,0,0.518-0.041,0.775-0.126c1.283-0.428,1.976-1.814,1.548-3.097L973.722,255.212z"/>
			<path class="st0" d="M1041.858,212.875h-40.615c-1.352,0-2.448,1.096-2.448,2.448c0,1.352,1.096,2.448,2.448,2.448h17.859v58.474
				c0,1.352,1.096,2.448,2.448,2.448c1.352,0,2.448-1.096,2.448-2.448v-58.474h17.859c1.352,0,2.448-1.096,2.448-2.448
				C1044.306,213.971,1043.21,212.875,1041.858,212.875z"/>
			<path class="st0" d="M1111.125,217.771c1.352,0,2.448-1.096,2.448-2.448s-1.096-2.448-2.448-2.448h-40.615
				c-1.352,0-2.448,1.096-2.448,2.448v60.922c0,1.352,1.096,2.448,2.448,2.448h40.615c1.352,0,2.448-1.096,2.448-2.448
				c0-1.352-1.096-2.448-2.448-2.448h-38.167v-15.411h17.859c1.352,0,2.448-1.096,2.448-2.448c0-1.352-1.096-2.448-2.448-2.448
				h-17.859v-35.719H1111.125z"/>
			<path class="st0" d="M1249.59,217.771c1.352,0,2.448-1.096,2.448-2.448s-1.096-2.448-2.448-2.448h-40.615
				c-1.352,0-2.448,1.096-2.448,2.448v60.922c0,1.352,1.096,2.448,2.448,2.448h40.615c1.352,0,2.448-1.096,2.448-2.448
				c0-1.352-1.096-2.448-2.448-2.448h-38.167v-15.411h17.859c1.352,0,2.448-1.096,2.448-2.448c0-1.352-1.096-2.448-2.448-2.448
				h-17.859v-35.719H1249.59z"/>
			<g>
				<path class="st0" d="M866.49,276.245v-60.922c0-1.352-1.096-2.448-2.448-2.448c-1.352,0-2.448,1.096-2.448,2.448v60.922
					c0,1.352,1.096,2.448,2.448,2.448C865.394,278.693,866.49,277.597,866.49,276.245z"/>
				<path class="st0" d="M904.656,212.875c-1.352,0-2.448,1.096-2.448,2.448v38.167h-17.859c-1.352,0-2.448,1.096-2.448,2.448
					c0,1.352,1.096,2.448,2.448,2.448h17.859v17.859c0,1.352,1.096,2.448,2.448,2.448c1.352,0,2.448-1.096,2.448-2.448v-60.922
					C907.104,213.971,906.008,212.875,904.656,212.875z"/>
			</g>
			<path class="st0" d="M1300.991,256.674c0.613-0.425,1.208-0.913,1.783-1.464c1.311-1.254,2.504-2.835,3.449-4.57
				c1.39-2.55,2.457-5.521,3.084-8.593c0.646-3.164,0.832-6.338,0.552-9.435c-0.301-3.331-1.131-6.397-2.466-9.112
				c-1.481-3.013-3.542-5.5-6.126-7.392c-1.94-1.42-4.288-2.348-7.179-2.836c-2.453-0.414-4.929-0.451-7.058-0.452
				c-0.219,0-0.907,0.013-2.211,0.038c-2.109,0.04-6.94,0.132-7.914,0.101c-0.119-0.018-0.241-0.027-0.366-0.027
				c-1.352,0-2.448,1.096-2.448,2.448V276.3c0,1.352,1.096,2.448,2.448,2.448c1.352,0,2.448-1.096,2.448-2.448V217.85
				c0.197-0.002,0.406-0.005,0.629-0.007c1.695-0.022,3.776-0.062,5.296-0.09c1.034-0.02,1.928-0.037,2.112-0.037
				c0.001,0,0.002,0,0.002,0c4.129,0.003,8.406,0.187,11.349,2.342c1.94,1.42,3.496,3.305,4.625,5.602
				c1.069,2.174,1.736,4.662,1.983,7.393c0.234,2.584,0.07,5.355-0.473,8.014c-0.531,2.601-1.425,5.101-2.586,7.229
				c-1.511,2.771-3.602,4.715-5.739,5.338c-0.811,0.227-1.452,0.858-1.689,1.673c-0.25,0.858-0.012,1.784,0.619,2.415l20.307,20.307
				c0.956,0.956,2.506,0.956,3.462,0c0.956-0.956,0.956-2.506,0-3.462L1300.991,256.674z M1277.011,212.976
				c0.443,0.071,0.83,0.276,1.141,0.56C1277.833,213.258,1277.442,213.061,1277.011,212.976z"/>
			<path class="st0" d="M1179.092,213.001c-1.283-0.427-2.669,0.266-3.097,1.548l-17.985,53.955l-17.985-53.955
				c-0.428-1.283-1.814-1.976-3.097-1.548c-1.283,0.428-1.976,1.814-1.548,3.097l20.307,60.922c0.333,1,1.269,1.674,2.322,1.674
				s1.989-0.674,2.323-1.674l20.307-60.922C1181.068,214.815,1180.375,213.428,1179.092,213.001z"/>
			<path class="st0" d="M823.813,212.875c-1.352,0-2.448,1.096-2.448,2.448v50.552l-15.67-31.339
				c-0.415-0.829-1.262-1.353-2.19-1.353c-0.927,0-1.775,0.524-2.19,1.353l-15.67,31.339v-50.552c0-1.352-1.096-2.448-2.448-2.448
				c-1.352,0-2.448,1.096-2.448,2.448v60.922c0,1.135,0.781,2.122,1.886,2.383s2.244-0.272,2.752-1.288l18.118-36.235l18.118,36.235
				c0.421,0.843,1.278,1.354,2.189,1.354c0.186,0,0.375-0.021,0.563-0.066c1.105-0.261,1.886-1.247,1.886-2.383v-60.922
				C826.261,213.971,825.165,212.875,823.813,212.875z"/>
		</g>
	</g>
	<path class="st0" d="M354.033,0c21.521,25.33,32.895,59.172,28.78,94.796c-3.499,30.287-17.605,56.769-38.179,76.165
		c4.876-9.885,8.168-20.76,9.505-32.337c2.87-24.846-3.76-48.596-17.002-67.632c7.757,15.281,11.268,32.93,9.155,51.229
		c-5.73,49.606-50.588,85.174-100.194,79.445c-49.606-5.73-85.174-50.588-79.444-100.194c1.427-12.358,5.285-23.844,11.037-34.038
		c-10.447,13.66-17.461,30.224-19.578,48.549c-1.717,14.865-0.035,29.34,4.429,42.647c-20.213-25.044-30.753-57.87-26.769-92.366
		c2.359-20.426,9.545-39.12,20.283-55.078c-14.858,18.716-24.844,41.674-27.788,67.16c-6.344,54.92,21.824,105.872,67.306,131.174
		h-95.515c-2.125,0-3.507,2.236-2.556,4.136l13.994,27.989c0.33,0.66,0.901,1.166,1.596,1.414
		c7.919,2.818,56.951,20.637,65.235,32.776c9.017,13.214-1.799,35.961-16.579,65.55c-7.21,14.435-15.826,24.769-22.468,30.016
		c-5.189,4.099-10.689,3.907-10.689,3.907H96.62c-0.758,0-1.485,0.301-2.021,0.837L0.843,469.898
		c-1.801,1.801-0.525,4.879,2.021,4.879h255.502c1.579,0,2.858-1.28,2.858-2.858V242.675c0,0,12.637,12.184,33.592,12.184
		c20.955,0,32.723-12.184,32.723-12.184l-39.07-19.535c53.788-11.804,96.636-56.592,103.309-114.36
		C396.596,67.063,381.502,27.636,354.033,0z"/>
</g>
</svg>